# xmcd CD database file
#
# Track frame offsets:
#	150
#	11566
#	23986
#	36371
#	46241
#	61761
#	75035
#	87991
#	102284
#	116961
#	128975
#	146099
#	160694
#	173033
#	188939
#	199117
#	212355
#	226400
#	241233
#	252702
#	265758
#	278608
#	291806
#	304883
#
# Disc length: 4256 seconds
#
# Revision: 3
# Processed by: cddbd v1.5.2PL0 Copyright (c) Steve Scherf et al.
# Submitted via: CDex 1.51
#
DISCID=4c109e18
DTITLE=Nat King Cole - Jazz on Cinema
DYEAR=2004
DGENRE=Jazz
TTITLE0=LOVE
TTITLE1=Let There Be Love
TTITLE2=Quizas, Quizas, Quizas
TTITLE3=Aquellos Ojos Verdes
TTITLE4=Mona Lisa
TTITLE5=Smile
TTITLE6=Nature Boy
TTITLE7=When I Fall In Love
TTITLE8=Stardust
TTITLE9=Autumn Leaves
TTITLE10=The Very Thought Of You
TTITLE11=I Remember You
TTITLE12=Lover Letters
TTITLE13=Fly Me To The Moon (In Other Words)
TTITLE14=Blue Moon
TTITLE15=The Girl From Ipanema
TTITLE16=It's Only A Paper Moon
TTITLE17=Lush Life
TTITLE18=Makin' Whoopee
TTITLE19=(I Love You) For Sentimental Reasons
TTITLE20=Dream A Little Dream Of Me
TTITLE21=Smoke Get In Your Eyes (Instrumental Version)
TTITLE22=I Wish You Love (Live Version)
TTITLE23=Unforgettable (BonusTrack)
EXTD=YEAR: 2004
EXTT0=
EXTT1=
EXTT2=
EXTT3=
EXTT4=
EXTT5=
EXTT6=
EXTT7=
EXTT8=
EXTT9=
EXTT10=
EXTT11=
EXTT12=
EXTT13=
EXTT14=
EXTT15=
EXTT16=
EXTT17=
EXTT18=
EXTT19=
EXTT20=
EXTT21=
EXTT22=
EXTT23=
PLAYORDER=
